<?xml version="1.0" encoding="UTF-8" standalone="no"?>
<!DOCTYPE svg PUBLIC "-//W3C//DTD SVG 1.1//EN"
 "http://www.w3.org/Graphics/SVG/1.1/DTD/svg11.dtd">
<!-- Generated by graphviz version 2.43.0 (0)
 -->
<!-- Title: %3 Pages: 1 -->
<svg width="298pt" height="115pt"
 viewBox="0.00 0.00 298.00 115.00" xmlns="http://www.w3.org/2000/svg" xmlns:xlink="http://www.w3.org/1999/xlink">
<g id="graph0" class="graph" transform="scale(1 1) rotate(0) translate(4 111)">
<title>%3</title>
<polygon fill="white" stroke="transparent" points="-4,4 -4,-111 294,-111 294,4 -4,4"/>
<!-- tbl4 -->
<g id="node1" class="node">
<title>tbl4</title>
<polygon fill="none" stroke="black" points="118,-37.5 118,-83.5 172,-83.5 172,-37.5 118,-37.5"/>
<text text-anchor="middle" x="145" y="-68.3" font-family="MS Gothic" font-size="14.00">col1</text>
<polyline fill="none" stroke="black" points="118,-60.5 172,-60.5 "/>
<text text-anchor="middle" x="145" y="-45.3" font-family="MS Gothic" font-size="14.00">col2</text>
<text text-anchor="middle" x="104" y="-25.8" font-family="MS Gothic" font-size="14.00">tbl4</text>
</g>
<!-- Select&#45;0 -->
<g id="node2" class="node">
<title>Select&#45;0</title>
<polygon fill="none" stroke="black" points="208,-15 208,-84 290,-84 290,-15 208,-15"/>
<text text-anchor="middle" x="249" y="-68.8" font-family="MS Gothic" font-size="14.00">col1</text>
<polyline fill="none" stroke="black" points="208,-61 290,-61 "/>
<text text-anchor="middle" x="249" y="-45.8" font-family="MS Gothic" font-size="14.00">col2</text>
<polyline fill="none" stroke="black" points="208,-38 290,-38 "/>
<text text-anchor="middle" x="249" y="-22.8" font-family="MS Gothic" font-size="14.00">column&#45;3</text>
</g>
<!-- tbl4&#45;&gt;Select&#45;0 -->
<g id="edge3" class="edge">
<title>tbl4:col1&#45;&gt;Select&#45;0:col1</title>
<path fill="none" stroke="black" d="M172,-72.5C184,-72.5 189.25,-72.5 197.88,-72.5"/>
<polygon fill="black" stroke="black" points="198,-76 208,-72.5 198,-69 198,-76"/>
</g>
<!-- tbl4&#45;&gt;Select&#45;0 -->
<g id="edge4" class="edge">
<title>tbl4:col2&#45;&gt;Select&#45;0:col2</title>
<path fill="none" stroke="black" d="M172,-48.5C184,-48.5 189.25,-49.06 197.87,-49.34"/>
<polygon fill="black" stroke="black" points="197.95,-52.85 208,-49.5 198.06,-45.85 197.95,-52.85"/>
</g>
<!-- tbl1 -->
<g id="node3" class="node">
<title>tbl1</title>
<polygon fill="none" stroke="black" points="28,-70.5 28,-106.5 82,-106.5 82,-70.5 28,-70.5"/>
<text text-anchor="middle" x="55" y="-84.8" font-family="MS Gothic" font-size="14.00">col1</text>
<text text-anchor="middle" x="14" y="-58.8" font-family="MS Gothic" font-size="14.00">tbl1</text>
</g>
<!-- tbl1&#45;&gt;tbl4 -->
<g id="edge2" class="edge">
<title>tbl1:col1&#45;&gt;tbl4:col1</title>
<path fill="none" stroke="black" d="M82.22,-78.46C90.1,-76.15 98.96,-74.08 107.76,-73.1"/>
<polygon fill="black" stroke="black" points="108.22,-76.58 118,-72.5 107.81,-69.59 108.22,-76.58"/>
</g>
<!-- tbl2 -->
<g id="node4" class="node">
<title>tbl2</title>
<polygon fill="none" stroke="black" points="28,-15.5 28,-51.5 82,-51.5 82,-15.5 28,-15.5"/>
<text text-anchor="middle" x="55" y="-29.8" font-family="MS Gothic" font-size="14.00">col2</text>
<text text-anchor="middle" x="14" y="-3.8" font-family="MS Gothic" font-size="14.00">tbl2</text>
</g>
<!-- tbl2&#45;&gt;tbl4 -->
<g id="edge1" class="edge">
<title>tbl2:col2&#45;&gt;tbl4:col2</title>
<path fill="none" stroke="black" d="M82.27,-42.91C90.15,-45.08 99,-47.02 107.79,-47.94"/>
<polygon fill="black" stroke="black" points="107.82,-51.44 118,-48.5 108.21,-44.45 107.82,-51.44"/>
</g>
</g>
</svg>
