<?xml version="1.0" encoding="UTF-8" standalone="no"?>
<!DOCTYPE svg PUBLIC "-//W3C//DTD SVG 1.1//EN"
 "http://www.w3.org/Graphics/SVG/1.1/DTD/svg11.dtd">
<!-- Generated by graphviz version 2.43.0 (0)
 -->
<!-- Title: %3 Pages: 1 -->
<svg width="482pt" height="152pt"
 viewBox="0.00 0.00 482.00 152.00" xmlns="http://www.w3.org/2000/svg" xmlns:xlink="http://www.w3.org/1999/xlink">
<g id="graph0" class="graph" transform="scale(1 1) rotate(0) translate(4 148)">
<title>%3</title>
<polygon fill="white" stroke="transparent" points="-4,4 -4,-148 478,-148 478,4 -4,4"/>
<!-- tbl4 -->
<g id="node1" class="node">
<title>tbl4</title>
<path fill="none" stroke="black" d="M264,-86.73C264,-88.53 251.9,-90 237,-90 222.1,-90 210,-88.53 210,-86.73 210,-86.73 210,-57.27 210,-57.27 210,-55.47 222.1,-54 237,-54 251.9,-54 264,-55.47 264,-57.27 264,-57.27 264,-86.73 264,-86.73"/>
<path fill="none" stroke="black" d="M264,-86.73C264,-84.92 251.9,-83.45 237,-83.45 222.1,-83.45 210,-84.92 210,-86.73"/>
<text text-anchor="middle" x="237" y="-68.3" font-family="MS Gothic" font-size="14.00">tbl4</text>
</g>
<!-- process&#45;4 -->
<g id="node9" class="node">
<title>process&#45;4</title>
<polygon fill="none" stroke="black" points="378,-90 300,-90 300,-54 384,-54 384,-84 378,-90"/>
<polyline fill="none" stroke="black" points="378,-90 378,-84 "/>
<polyline fill="none" stroke="black" points="384,-84 378,-84 "/>
<text text-anchor="middle" x="342" y="-68.3" font-family="MS Gothic" font-size="14.00">process&#45;4</text>
</g>
<!-- tbl4&#45;&gt;process&#45;4 -->
<g id="edge6" class="edge">
<title>tbl4&#45;&gt;process&#45;4</title>
<path fill="none" stroke="black" d="M264.26,-72C272.05,-72 280.88,-72 289.69,-72"/>
<polygon fill="black" stroke="black" points="289.97,-75.5 299.97,-72 289.97,-68.5 289.97,-75.5"/>
</g>
<!-- Select&#45;0 -->
<g id="node2" class="node">
<title>Select&#45;0</title>
<path fill="none" stroke="black" d="M474,-86.73C474,-88.53 461.9,-90 447,-90 432.1,-90 420,-88.53 420,-86.73 420,-86.73 420,-57.27 420,-57.27 420,-55.47 432.1,-54 447,-54 461.9,-54 474,-55.47 474,-57.27 474,-57.27 474,-86.73 474,-86.73"/>
<path fill="none" stroke="black" d="M474,-86.73C474,-84.92 461.9,-83.45 447,-83.45 432.1,-83.45 420,-84.92 420,-86.73"/>
</g>
<!-- tbl1 -->
<g id="node3" class="node">
<title>tbl1</title>
<path fill="none" stroke="black" d="M54,-140.73C54,-142.53 41.9,-144 27,-144 12.1,-144 0,-142.53 0,-140.73 0,-140.73 0,-111.27 0,-111.27 0,-109.47 12.1,-108 27,-108 41.9,-108 54,-109.47 54,-111.27 54,-111.27 54,-140.73 54,-140.73"/>
<path fill="none" stroke="black" d="M54,-140.73C54,-138.92 41.9,-137.45 27,-137.45 12.1,-137.45 0,-138.92 0,-140.73"/>
<text text-anchor="middle" x="27" y="-122.3" font-family="MS Gothic" font-size="14.00">tbl1</text>
</g>
<!-- process&#45;1 -->
<g id="node6" class="node">
<title>process&#45;1</title>
<polygon fill="none" stroke="black" points="168,-144 90,-144 90,-108 174,-108 174,-138 168,-144"/>
<polyline fill="none" stroke="black" points="168,-144 168,-138 "/>
<polyline fill="none" stroke="black" points="174,-138 168,-138 "/>
<text text-anchor="middle" x="132" y="-122.3" font-family="MS Gothic" font-size="14.00">process&#45;1</text>
</g>
<!-- tbl1&#45;&gt;process&#45;1 -->
<g id="edge2" class="edge">
<title>tbl1&#45;&gt;process&#45;1</title>
<path fill="none" stroke="black" d="M54.26,-126C62.05,-126 70.88,-126 79.69,-126"/>
<polygon fill="black" stroke="black" points="79.97,-129.5 89.97,-126 79.97,-122.5 79.97,-129.5"/>
</g>
<!-- tbl2 -->
<g id="node4" class="node">
<title>tbl2</title>
<path fill="none" stroke="black" d="M54,-86.73C54,-88.53 41.9,-90 27,-90 12.1,-90 0,-88.53 0,-86.73 0,-86.73 0,-57.27 0,-57.27 0,-55.47 12.1,-54 27,-54 41.9,-54 54,-55.47 54,-57.27 54,-57.27 54,-86.73 54,-86.73"/>
<path fill="none" stroke="black" d="M54,-86.73C54,-84.92 41.9,-83.45 27,-83.45 12.1,-83.45 0,-84.92 0,-86.73"/>
<text text-anchor="middle" x="27" y="-68.3" font-family="MS Gothic" font-size="14.00">tbl2</text>
</g>
<!-- process&#45;2 -->
<g id="node7" class="node">
<title>process&#45;2</title>
<polygon fill="none" stroke="black" points="168,-90 90,-90 90,-54 174,-54 174,-84 168,-90"/>
<polyline fill="none" stroke="black" points="168,-90 168,-84 "/>
<polyline fill="none" stroke="black" points="174,-84 168,-84 "/>
<text text-anchor="middle" x="132" y="-68.3" font-family="MS Gothic" font-size="14.00">process&#45;2</text>
</g>
<!-- tbl2&#45;&gt;process&#45;2 -->
<g id="edge7" class="edge">
<title>tbl2&#45;&gt;process&#45;2</title>
<path fill="none" stroke="black" d="M54.26,-72C62.05,-72 70.88,-72 79.69,-72"/>
<polygon fill="black" stroke="black" points="79.97,-75.5 89.97,-72 79.97,-68.5 79.97,-75.5"/>
</g>
<!-- tbl3 -->
<g id="node5" class="node">
<title>tbl3</title>
<path fill="none" stroke="black" d="M54,-32.73C54,-34.53 41.9,-36 27,-36 12.1,-36 0,-34.53 0,-32.73 0,-32.73 0,-3.27 0,-3.27 0,-1.47 12.1,0 27,0 41.9,0 54,-1.47 54,-3.27 54,-3.27 54,-32.73 54,-32.73"/>
<path fill="none" stroke="black" d="M54,-32.73C54,-30.92 41.9,-29.45 27,-29.45 12.1,-29.45 0,-30.92 0,-32.73"/>
<text text-anchor="middle" x="27" y="-14.3" font-family="MS Gothic" font-size="14.00">tbl3</text>
</g>
<!-- tbl3&#45;&gt;process&#45;2 -->
<g id="edge9" class="edge">
<title>tbl3&#45;&gt;process&#45;2</title>
<path fill="none" stroke="black" stroke-dasharray="5,2" d="M54.26,-31.77C64.42,-37.09 76.32,-43.33 87.67,-49.28"/>
<polygon fill="black" stroke="black" points="86.14,-52.43 96.62,-53.97 89.39,-46.23 86.14,-52.43"/>
</g>
<!-- process&#45;3 -->
<g id="node8" class="node">
<title>process&#45;3</title>
<polygon fill="none" stroke="black" points="168,-36 90,-36 90,0 174,0 174,-30 168,-36"/>
<polyline fill="none" stroke="black" points="168,-36 168,-30 "/>
<polyline fill="none" stroke="black" points="174,-30 168,-30 "/>
<text text-anchor="middle" x="132" y="-14.3" font-family="MS Gothic" font-size="14.00">process&#45;3</text>
</g>
<!-- tbl3&#45;&gt;process&#45;3 -->
<g id="edge8" class="edge">
<title>tbl3&#45;&gt;process&#45;3</title>
<path fill="none" stroke="black" stroke-dasharray="5,2" d="M54.26,-18C62.05,-18 70.88,-18 79.69,-18"/>
<polygon fill="black" stroke="black" points="79.97,-21.5 89.97,-18 79.97,-14.5 79.97,-21.5"/>
</g>
<!-- process&#45;1&#45;&gt;tbl4 -->
<g id="edge3" class="edge">
<title>process&#45;1&#45;&gt;tbl4</title>
<path fill="none" stroke="black" d="M167.58,-107.87C178.25,-102.28 190.01,-96.11 200.72,-90.5"/>
<polygon fill="black" stroke="black" points="202.58,-93.47 209.82,-85.73 199.33,-87.27 202.58,-93.47"/>
</g>
<!-- process&#45;2&#45;&gt;tbl4 -->
<g id="edge5" class="edge">
<title>process&#45;2&#45;&gt;tbl4</title>
<path fill="none" stroke="black" d="M174,-72C182.52,-72 191.45,-72 199.78,-72"/>
<polygon fill="black" stroke="black" points="199.95,-75.5 209.95,-72 199.95,-68.5 199.95,-75.5"/>
</g>
<!-- process&#45;3&#45;&gt;tbl4 -->
<g id="edge1" class="edge">
<title>process&#45;3&#45;&gt;tbl4</title>
<path fill="none" stroke="black" d="M167.58,-36.13C178.25,-41.72 190.01,-47.89 200.72,-53.5"/>
<polygon fill="black" stroke="black" points="199.33,-56.73 209.82,-58.27 202.58,-50.53 199.33,-56.73"/>
</g>
<!-- process&#45;4&#45;&gt;Select&#45;0 -->
<g id="edge4" class="edge">
<title>process&#45;4&#45;&gt;Select&#45;0</title>
<path fill="none" stroke="black" d="M384,-72C392.52,-72 401.45,-72 409.78,-72"/>
<polygon fill="black" stroke="black" points="409.95,-75.5 419.95,-72 409.95,-68.5 409.95,-75.5"/>
</g>
</g>
</svg>
