<?xml version="1.0" encoding="UTF-8" standalone="no"?>
<!DOCTYPE svg PUBLIC "-//W3C//DTD SVG 1.1//EN"
 "http://www.w3.org/Graphics/SVG/1.1/DTD/svg11.dtd">
<!-- Generated by graphviz version 2.43.0 (0)
 -->
<!-- Title: %3 Pages: 1 -->
<svg width="286pt" height="115pt"
 viewBox="0.00 0.00 286.00 115.00" xmlns="http://www.w3.org/2000/svg" xmlns:xlink="http://www.w3.org/1999/xlink">
<g id="graph0" class="graph" transform="scale(1 1) rotate(0) translate(4 111)">
<title>%3</title>
<polygon fill="white" stroke="transparent" points="-4,4 -4,-111 282,-111 282,4 -4,4"/>
<!-- table4 -->
<g id="node1" class="node">
<title>table4</title>
<polygon fill="none" stroke="black" points="134,-37.5 134,-83.5 188,-83.5 188,-37.5 134,-37.5"/>
<text text-anchor="middle" x="161" y="-68.3" font-family="MS Gothic" font-size="14.00">col1</text>
<polyline fill="none" stroke="black" points="134,-60.5 188,-60.5 "/>
<text text-anchor="middle" x="161" y="-45.3" font-family="MS Gothic" font-size="14.00">col2</text>
<text text-anchor="middle" x="166" y="-25.8" font-family="MS Gothic" font-size="14.00">table4</text>
</g>
<!-- Select&#45;0 -->
<g id="node2" class="node">
<title>Select&#45;0</title>
<polygon fill="none" stroke="black" points="224,-37.5 224,-83.5 278,-83.5 278,-37.5 224,-37.5"/>
<text text-anchor="middle" x="251" y="-68.3" font-family="MS Gothic" font-size="14.00">col1</text>
<polyline fill="none" stroke="black" points="224,-60.5 278,-60.5 "/>
<text text-anchor="middle" x="251" y="-45.3" font-family="MS Gothic" font-size="14.00">col2</text>
</g>
<!-- table4&#45;&gt;Select&#45;0 -->
<g id="edge3" class="edge">
<title>table4:col1&#45;&gt;Select&#45;0:col1</title>
<path fill="none" stroke="black" d="M188,-72.5C200,-72.5 205.25,-72.5 213.88,-72.5"/>
<polygon fill="black" stroke="black" points="214,-76 224,-72.5 214,-69 214,-76"/>
</g>
<!-- table4&#45;&gt;Select&#45;0 -->
<g id="edge4" class="edge">
<title>table4:col2&#45;&gt;Select&#45;0:col2</title>
<path fill="none" stroke="black" d="M188,-48.5C200,-48.5 205.25,-48.5 213.88,-48.5"/>
<polygon fill="black" stroke="black" points="214,-52 224,-48.5 214,-45 214,-52"/>
</g>
<!-- table1 -->
<g id="node3" class="node">
<title>table1</title>
<polygon fill="none" stroke="black" points="44,-70.5 44,-106.5 98,-106.5 98,-70.5 44,-70.5"/>
<text text-anchor="middle" x="71" y="-84.8" font-family="MS Gothic" font-size="14.00">col1</text>
<text text-anchor="middle" x="22" y="-58.8" font-family="MS Gothic" font-size="14.00">table1</text>
</g>
<!-- table1&#45;&gt;table4 -->
<g id="edge2" class="edge">
<title>table1:col1&#45;&gt;table4:col1</title>
<path fill="none" stroke="black" d="M98.22,-78.46C106.1,-76.15 114.96,-74.08 123.76,-73.1"/>
<polygon fill="black" stroke="black" points="124.22,-76.58 134,-72.5 123.81,-69.59 124.22,-76.58"/>
</g>
<!-- table2 -->
<g id="node4" class="node">
<title>table2</title>
<polygon fill="none" stroke="black" points="44,-15.5 44,-51.5 98,-51.5 98,-15.5 44,-15.5"/>
<text text-anchor="middle" x="71" y="-29.8" font-family="MS Gothic" font-size="14.00">col2</text>
<text text-anchor="middle" x="22" y="-3.8" font-family="MS Gothic" font-size="14.00">table2</text>
</g>
<!-- table2&#45;&gt;table4 -->
<g id="edge1" class="edge">
<title>table2:col2&#45;&gt;table4:col2</title>
<path fill="none" stroke="black" d="M98.27,-42.91C106.15,-45.08 115,-47.02 123.79,-47.94"/>
<polygon fill="black" stroke="black" points="123.82,-51.44 134,-48.5 124.21,-44.45 123.82,-51.44"/>
</g>
</g>
</svg>
