<?xml version="1.0" encoding="UTF-8" standalone="no"?>
<!DOCTYPE svg PUBLIC "-//W3C//DTD SVG 1.1//EN"
 "http://www.w3.org/Graphics/SVG/1.1/DTD/svg11.dtd">
<!-- Generated by graphviz version 2.43.0 (0)
 -->
<!-- Title: %3 Pages: 1 -->
<svg width="494pt" height="152pt"
 viewBox="0.00 0.00 494.00 152.00" xmlns="http://www.w3.org/2000/svg" xmlns:xlink="http://www.w3.org/1999/xlink">
<g id="graph0" class="graph" transform="scale(1 1) rotate(0) translate(4 148)">
<title>%3</title>
<polygon fill="white" stroke="transparent" points="-4,4 -4,-148 490,-148 490,4 -4,4"/>
<!-- table4 -->
<g id="node1" class="node">
<title>table4</title>
<path fill="none" stroke="black" d="M276,-86.73C276,-88.53 262.55,-90 246,-90 229.45,-90 216,-88.53 216,-86.73 216,-86.73 216,-57.27 216,-57.27 216,-55.47 229.45,-54 246,-54 262.55,-54 276,-55.47 276,-57.27 276,-57.27 276,-86.73 276,-86.73"/>
<path fill="none" stroke="black" d="M276,-86.73C276,-84.92 262.55,-83.45 246,-83.45 229.45,-83.45 216,-84.92 216,-86.73"/>
<text text-anchor="middle" x="246" y="-68.3" font-family="MS Gothic" font-size="14.00">table4</text>
</g>
<!-- process&#45;4 -->
<g id="node9" class="node">
<title>process&#45;4</title>
<polygon fill="none" stroke="black" points="390,-90 312,-90 312,-54 396,-54 396,-84 390,-90"/>
<polyline fill="none" stroke="black" points="390,-90 390,-84 "/>
<polyline fill="none" stroke="black" points="396,-84 390,-84 "/>
<text text-anchor="middle" x="354" y="-68.3" font-family="MS Gothic" font-size="14.00">process&#45;4</text>
</g>
<!-- table4&#45;&gt;process&#45;4 -->
<g id="edge6" class="edge">
<title>table4&#45;&gt;process&#45;4</title>
<path fill="none" stroke="black" d="M276.25,-72C284.17,-72 293,-72 301.75,-72"/>
<polygon fill="black" stroke="black" points="301.95,-75.5 311.95,-72 301.95,-68.5 301.95,-75.5"/>
</g>
<!-- Select&#45;0 -->
<g id="node2" class="node">
<title>Select&#45;0</title>
<path fill="none" stroke="black" d="M486,-86.73C486,-88.53 473.9,-90 459,-90 444.1,-90 432,-88.53 432,-86.73 432,-86.73 432,-57.27 432,-57.27 432,-55.47 444.1,-54 459,-54 473.9,-54 486,-55.47 486,-57.27 486,-57.27 486,-86.73 486,-86.73"/>
<path fill="none" stroke="black" d="M486,-86.73C486,-84.92 473.9,-83.45 459,-83.45 444.1,-83.45 432,-84.92 432,-86.73"/>
</g>
<!-- table1 -->
<g id="node3" class="node">
<title>table1</title>
<path fill="none" stroke="black" d="M60,-140.73C60,-142.53 46.55,-144 30,-144 13.45,-144 0,-142.53 0,-140.73 0,-140.73 0,-111.27 0,-111.27 0,-109.47 13.45,-108 30,-108 46.55,-108 60,-109.47 60,-111.27 60,-111.27 60,-140.73 60,-140.73"/>
<path fill="none" stroke="black" d="M60,-140.73C60,-138.92 46.55,-137.45 30,-137.45 13.45,-137.45 0,-138.92 0,-140.73"/>
<text text-anchor="middle" x="30" y="-122.3" font-family="MS Gothic" font-size="14.00">table1</text>
</g>
<!-- process&#45;1 -->
<g id="node6" class="node">
<title>process&#45;1</title>
<polygon fill="none" stroke="black" points="174,-144 96,-144 96,-108 180,-108 180,-138 174,-144"/>
<polyline fill="none" stroke="black" points="174,-144 174,-138 "/>
<polyline fill="none" stroke="black" points="180,-138 174,-138 "/>
<text text-anchor="middle" x="138" y="-122.3" font-family="MS Gothic" font-size="14.00">process&#45;1</text>
</g>
<!-- table1&#45;&gt;process&#45;1 -->
<g id="edge2" class="edge">
<title>table1&#45;&gt;process&#45;1</title>
<path fill="none" stroke="black" d="M60.25,-126C68.17,-126 77,-126 85.75,-126"/>
<polygon fill="black" stroke="black" points="85.95,-129.5 95.95,-126 85.95,-122.5 85.95,-129.5"/>
</g>
<!-- table2 -->
<g id="node4" class="node">
<title>table2</title>
<path fill="none" stroke="black" d="M60,-86.73C60,-88.53 46.55,-90 30,-90 13.45,-90 0,-88.53 0,-86.73 0,-86.73 0,-57.27 0,-57.27 0,-55.47 13.45,-54 30,-54 46.55,-54 60,-55.47 60,-57.27 60,-57.27 60,-86.73 60,-86.73"/>
<path fill="none" stroke="black" d="M60,-86.73C60,-84.92 46.55,-83.45 30,-83.45 13.45,-83.45 0,-84.92 0,-86.73"/>
<text text-anchor="middle" x="30" y="-68.3" font-family="MS Gothic" font-size="14.00">table2</text>
</g>
<!-- process&#45;2 -->
<g id="node7" class="node">
<title>process&#45;2</title>
<polygon fill="none" stroke="black" points="174,-90 96,-90 96,-54 180,-54 180,-84 174,-90"/>
<polyline fill="none" stroke="black" points="174,-90 174,-84 "/>
<polyline fill="none" stroke="black" points="180,-84 174,-84 "/>
<text text-anchor="middle" x="138" y="-68.3" font-family="MS Gothic" font-size="14.00">process&#45;2</text>
</g>
<!-- table2&#45;&gt;process&#45;2 -->
<g id="edge3" class="edge">
<title>table2&#45;&gt;process&#45;2</title>
<path fill="none" stroke="black" d="M60.25,-72C68.17,-72 77,-72 85.75,-72"/>
<polygon fill="black" stroke="black" points="85.95,-75.5 95.95,-72 85.95,-68.5 85.95,-75.5"/>
</g>
<!-- table3 -->
<g id="node5" class="node">
<title>table3</title>
<path fill="none" stroke="black" d="M60,-32.73C60,-34.53 46.55,-36 30,-36 13.45,-36 0,-34.53 0,-32.73 0,-32.73 0,-3.27 0,-3.27 0,-1.47 13.45,0 30,0 46.55,0 60,-1.47 60,-3.27 60,-3.27 60,-32.73 60,-32.73"/>
<path fill="none" stroke="black" d="M60,-32.73C60,-30.92 46.55,-29.45 30,-29.45 13.45,-29.45 0,-30.92 0,-32.73"/>
<text text-anchor="middle" x="30" y="-14.3" font-family="MS Gothic" font-size="14.00">table3</text>
</g>
<!-- table3&#45;&gt;process&#45;2 -->
<g id="edge8" class="edge">
<title>table3&#45;&gt;process&#45;2</title>
<path fill="none" stroke="black" stroke-dasharray="5,2" d="M60.25,-32.9C70.2,-37.97 81.57,-43.76 92.45,-49.31"/>
<polygon fill="black" stroke="black" points="90.94,-52.46 101.44,-53.88 94.11,-46.22 90.94,-52.46"/>
</g>
<!-- process&#45;3 -->
<g id="node8" class="node">
<title>process&#45;3</title>
<polygon fill="none" stroke="black" points="174,-36 96,-36 96,0 180,0 180,-30 174,-36"/>
<polyline fill="none" stroke="black" points="174,-36 174,-30 "/>
<polyline fill="none" stroke="black" points="180,-30 174,-30 "/>
<text text-anchor="middle" x="138" y="-14.3" font-family="MS Gothic" font-size="14.00">process&#45;3</text>
</g>
<!-- table3&#45;&gt;process&#45;3 -->
<g id="edge9" class="edge">
<title>table3&#45;&gt;process&#45;3</title>
<path fill="none" stroke="black" stroke-dasharray="5,2" d="M60.25,-18C68.17,-18 77,-18 85.75,-18"/>
<polygon fill="black" stroke="black" points="85.95,-21.5 95.95,-18 85.95,-14.5 85.95,-21.5"/>
</g>
<!-- process&#45;1&#45;&gt;table4 -->
<g id="edge1" class="edge">
<title>process&#45;1&#45;&gt;table4</title>
<path fill="none" stroke="black" d="M174.59,-107.87C184.92,-102.61 196.24,-96.84 206.72,-91.5"/>
<polygon fill="black" stroke="black" points="208.35,-94.6 215.67,-86.94 205.18,-88.36 208.35,-94.6"/>
</g>
<!-- process&#45;2&#45;&gt;table4 -->
<g id="edge5" class="edge">
<title>process&#45;2&#45;&gt;table4</title>
<path fill="none" stroke="black" d="M180.29,-72C188.62,-72 197.37,-72 205.64,-72"/>
<polygon fill="black" stroke="black" points="205.79,-75.5 215.79,-72 205.79,-68.5 205.79,-75.5"/>
</g>
<!-- process&#45;3&#45;&gt;table4 -->
<g id="edge4" class="edge">
<title>process&#45;3&#45;&gt;table4</title>
<path fill="none" stroke="black" d="M174.59,-36.13C184.92,-41.39 196.24,-47.16 206.72,-52.5"/>
<polygon fill="black" stroke="black" points="205.18,-55.64 215.67,-57.06 208.35,-49.4 205.18,-55.64"/>
</g>
<!-- process&#45;4&#45;&gt;Select&#45;0 -->
<g id="edge7" class="edge">
<title>process&#45;4&#45;&gt;Select&#45;0</title>
<path fill="none" stroke="black" d="M396,-72C404.52,-72 413.45,-72 421.78,-72"/>
<polygon fill="black" stroke="black" points="421.95,-75.5 431.95,-72 421.95,-68.5 421.95,-75.5"/>
</g>
</g>
</svg>
