<?xml version="1.0" encoding="UTF-8" standalone="no"?>
<!DOCTYPE svg PUBLIC "-//W3C//DTD SVG 1.1//EN"
 "http://www.w3.org/Graphics/SVG/1.1/DTD/svg11.dtd">
<!-- Generated by graphviz version 2.43.0 (0)
 -->
<!-- Title: %3 Pages: 1 -->
<svg width="476pt" height="152pt"
 viewBox="0.00 0.00 476.00 152.00" xmlns="http://www.w3.org/2000/svg" xmlns:xlink="http://www.w3.org/1999/xlink">
<g id="graph0" class="graph" transform="scale(1 1) rotate(0) translate(4 148)">
<title>%3</title>
<polygon fill="white" stroke="transparent" points="-4,4 -4,-148 472,-148 472,4 -4,4"/>
<!-- tbl4 -->
<g id="node1" class="node">
<title>tbl4</title>
<path fill="none" stroke="black" d="M261,-86.73C261,-88.53 248.9,-90 234,-90 219.1,-90 207,-88.53 207,-86.73 207,-86.73 207,-57.27 207,-57.27 207,-55.47 219.1,-54 234,-54 248.9,-54 261,-55.47 261,-57.27 261,-57.27 261,-86.73 261,-86.73"/>
<path fill="none" stroke="black" d="M261,-86.73C261,-84.92 248.9,-83.45 234,-83.45 219.1,-83.45 207,-84.92 207,-86.73"/>
<text text-anchor="middle" x="234" y="-68.3" font-family="MS Gothic" font-size="14.00">tbl4</text>
</g>
<!-- sample&#45;4 -->
<g id="node9" class="node">
<title>sample&#45;4</title>
<polygon fill="none" stroke="black" points="372,-90 297,-90 297,-54 378,-54 378,-84 372,-90"/>
<polyline fill="none" stroke="black" points="372,-90 372,-84 "/>
<polyline fill="none" stroke="black" points="378,-84 372,-84 "/>
<text text-anchor="middle" x="337.5" y="-68.3" font-family="MS Gothic" font-size="14.00">sample&#45;4</text>
</g>
<!-- tbl4&#45;&gt;sample&#45;4 -->
<g id="edge6" class="edge">
<title>tbl4&#45;&gt;sample&#45;4</title>
<path fill="none" stroke="black" d="M261.14,-72C268.91,-72 277.69,-72 286.45,-72"/>
<polygon fill="black" stroke="black" points="286.65,-75.5 296.65,-72 286.65,-68.5 286.65,-75.5"/>
</g>
<!-- Select&#45;0 -->
<g id="node2" class="node">
<title>Select&#45;0</title>
<path fill="none" stroke="black" d="M468,-86.73C468,-88.53 455.9,-90 441,-90 426.1,-90 414,-88.53 414,-86.73 414,-86.73 414,-57.27 414,-57.27 414,-55.47 426.1,-54 441,-54 455.9,-54 468,-55.47 468,-57.27 468,-57.27 468,-86.73 468,-86.73"/>
<path fill="none" stroke="black" d="M468,-86.73C468,-84.92 455.9,-83.45 441,-83.45 426.1,-83.45 414,-84.92 414,-86.73"/>
</g>
<!-- tbl1 -->
<g id="node3" class="node">
<title>tbl1</title>
<path fill="none" stroke="black" d="M54,-140.73C54,-142.53 41.9,-144 27,-144 12.1,-144 0,-142.53 0,-140.73 0,-140.73 0,-111.27 0,-111.27 0,-109.47 12.1,-108 27,-108 41.9,-108 54,-109.47 54,-111.27 54,-111.27 54,-140.73 54,-140.73"/>
<path fill="none" stroke="black" d="M54,-140.73C54,-138.92 41.9,-137.45 27,-137.45 12.1,-137.45 0,-138.92 0,-140.73"/>
<text text-anchor="middle" x="27" y="-122.3" font-family="MS Gothic" font-size="14.00">tbl1</text>
</g>
<!-- sample&#45;1 -->
<g id="node6" class="node">
<title>sample&#45;1</title>
<polygon fill="none" stroke="black" points="165,-144 90,-144 90,-108 171,-108 171,-138 165,-144"/>
<polyline fill="none" stroke="black" points="165,-144 165,-138 "/>
<polyline fill="none" stroke="black" points="171,-138 165,-138 "/>
<text text-anchor="middle" x="130.5" y="-122.3" font-family="MS Gothic" font-size="14.00">sample&#45;1</text>
</g>
<!-- tbl1&#45;&gt;sample&#45;1 -->
<g id="edge7" class="edge">
<title>tbl1&#45;&gt;sample&#45;1</title>
<path fill="none" stroke="black" d="M54.14,-126C61.91,-126 70.69,-126 79.45,-126"/>
<polygon fill="black" stroke="black" points="79.65,-129.5 89.65,-126 79.65,-122.5 79.65,-129.5"/>
</g>
<!-- tbl2 -->
<g id="node4" class="node">
<title>tbl2</title>
<path fill="none" stroke="black" d="M54,-86.73C54,-88.53 41.9,-90 27,-90 12.1,-90 0,-88.53 0,-86.73 0,-86.73 0,-57.27 0,-57.27 0,-55.47 12.1,-54 27,-54 41.9,-54 54,-55.47 54,-57.27 54,-57.27 54,-86.73 54,-86.73"/>
<path fill="none" stroke="black" d="M54,-86.73C54,-84.92 41.9,-83.45 27,-83.45 12.1,-83.45 0,-84.92 0,-86.73"/>
<text text-anchor="middle" x="27" y="-68.3" font-family="MS Gothic" font-size="14.00">tbl2</text>
</g>
<!-- sample&#45;2 -->
<g id="node7" class="node">
<title>sample&#45;2</title>
<polygon fill="none" stroke="black" points="165,-90 90,-90 90,-54 171,-54 171,-84 165,-90"/>
<polyline fill="none" stroke="black" points="165,-90 165,-84 "/>
<polyline fill="none" stroke="black" points="171,-84 165,-84 "/>
<text text-anchor="middle" x="130.5" y="-68.3" font-family="MS Gothic" font-size="14.00">sample&#45;2</text>
</g>
<!-- tbl2&#45;&gt;sample&#45;2 -->
<g id="edge3" class="edge">
<title>tbl2&#45;&gt;sample&#45;2</title>
<path fill="none" stroke="black" d="M54.14,-72C61.91,-72 70.69,-72 79.45,-72"/>
<polygon fill="black" stroke="black" points="79.65,-75.5 89.65,-72 79.65,-68.5 79.65,-75.5"/>
</g>
<!-- tbl3 -->
<g id="node5" class="node">
<title>tbl3</title>
<path fill="none" stroke="black" d="M54,-32.73C54,-34.53 41.9,-36 27,-36 12.1,-36 0,-34.53 0,-32.73 0,-32.73 0,-3.27 0,-3.27 0,-1.47 12.1,0 27,0 41.9,0 54,-1.47 54,-3.27 54,-3.27 54,-32.73 54,-32.73"/>
<path fill="none" stroke="black" d="M54,-32.73C54,-30.92 41.9,-29.45 27,-29.45 12.1,-29.45 0,-30.92 0,-32.73"/>
<text text-anchor="middle" x="27" y="-14.3" font-family="MS Gothic" font-size="14.00">tbl3</text>
</g>
<!-- tbl3&#45;&gt;sample&#45;2 -->
<g id="edge9" class="edge">
<title>tbl3&#45;&gt;sample&#45;2</title>
<path fill="none" stroke="black" stroke-dasharray="5,2" d="M54.14,-31.91C63.96,-37.13 75.4,-43.22 86.36,-49.05"/>
<polygon fill="black" stroke="black" points="84.93,-52.25 95.4,-53.86 88.22,-46.07 84.93,-52.25"/>
</g>
<!-- sample&#45;3 -->
<g id="node8" class="node">
<title>sample&#45;3</title>
<polygon fill="none" stroke="black" points="165,-36 90,-36 90,0 171,0 171,-30 165,-36"/>
<polyline fill="none" stroke="black" points="165,-36 165,-30 "/>
<polyline fill="none" stroke="black" points="171,-30 165,-30 "/>
<text text-anchor="middle" x="130.5" y="-14.3" font-family="MS Gothic" font-size="14.00">sample&#45;3</text>
</g>
<!-- tbl3&#45;&gt;sample&#45;3 -->
<g id="edge8" class="edge">
<title>tbl3&#45;&gt;sample&#45;3</title>
<path fill="none" stroke="black" stroke-dasharray="5,2" d="M54.14,-18C61.91,-18 70.69,-18 79.45,-18"/>
<polygon fill="black" stroke="black" points="79.65,-21.5 89.65,-18 79.65,-14.5 79.65,-21.5"/>
</g>
<!-- sample&#45;1&#45;&gt;tbl4 -->
<g id="edge1" class="edge">
<title>sample&#45;1&#45;&gt;tbl4</title>
<path fill="none" stroke="black" d="M165.58,-107.87C176,-102.32 187.48,-96.22 197.97,-90.64"/>
<polygon fill="black" stroke="black" points="199.69,-93.69 206.87,-85.9 196.4,-87.51 199.69,-93.69"/>
</g>
<!-- sample&#45;2&#45;&gt;tbl4 -->
<g id="edge4" class="edge">
<title>sample&#45;2&#45;&gt;tbl4</title>
<path fill="none" stroke="black" d="M171.03,-72C179.49,-72 188.38,-72 196.7,-72"/>
<polygon fill="black" stroke="black" points="196.87,-75.5 206.87,-72 196.87,-68.5 196.87,-75.5"/>
</g>
<!-- sample&#45;3&#45;&gt;tbl4 -->
<g id="edge5" class="edge">
<title>sample&#45;3&#45;&gt;tbl4</title>
<path fill="none" stroke="black" d="M165.58,-36.13C176,-41.68 187.48,-47.78 197.97,-53.36"/>
<polygon fill="black" stroke="black" points="196.4,-56.49 206.87,-58.1 199.69,-50.31 196.4,-56.49"/>
</g>
<!-- sample&#45;4&#45;&gt;Select&#45;0 -->
<g id="edge2" class="edge">
<title>sample&#45;4&#45;&gt;Select&#45;0</title>
<path fill="none" stroke="black" d="M378.03,-72C386.49,-72 395.38,-72 403.7,-72"/>
<polygon fill="black" stroke="black" points="403.87,-75.5 413.87,-72 403.87,-68.5 403.87,-75.5"/>
</g>
</g>
</svg>
